<?xml version="1.0" encoding="utf-8"?>
<!-- Generated by IcoMoon.io -->
<svg version="1.1" xmlns="http://www.w3.org/2000/svg" xmlns:xlink="http://www.w3.org/1999/xlink" width="752" height="32" viewBox="0 0 752 32">
<svg id="icon-Nimbus-logo" width="115" height="32" viewBox="0 0 115 32" x="0" y="0">
<path fill="#1c1f25" d="M87.738 15.329c0.692 0.15 1.293 0.331 1.804 0.481 0.691 0.24 1.263 0.511 1.714 0.842 1.172 0.812 1.774 1.954 1.744 3.367 0 1.443-0.571 2.585-1.684 3.397s-2.525 1.233-4.179 1.233c-3.067 0-5.111-1.172-6.133-3.517l2.796-1.623c0.511 1.443 1.623 2.165 3.337 2.165s2.555-0.571 2.555-1.684c0-0.812-0.962-1.473-2.856-1.924-0.722-0.18-1.323-0.361-1.774-0.511-0.691-0.241-1.263-0.511-1.714-0.842-1.172-0.812-1.774-1.894-1.744-3.277 0-1.383 0.511-2.495 1.563-3.337s2.375-1.263 3.938-1.263c2.585 0 4.449 1.052 5.562 3.127l-2.736 1.533c-0.511-1.142-1.443-1.714-2.826-1.714-1.473 0-2.195 0.541-2.195 1.593 0 0.752 0.932 1.413 2.826 1.954z"></path>
<path fill="#1c1f25" d="M65.794 22.364c-1.533-1.533-2.315-3.427-2.315-5.622s0.782-4.089 2.315-5.622c1.533-1.533 3.397-2.285 5.622-2.285s4.089 0.752 5.622 2.285c1.533 1.533 2.315 3.427 2.315 5.622s-0.782 4.089-2.315 5.622c-1.533 1.533-3.397 2.285-5.622 2.285s-4.089-0.752-5.622-2.285zM71.416 21.492c1.323 0 2.435-0.451 3.337-1.353s1.353-2.044 1.353-3.397c0-1.353-0.451-2.495-1.353-3.397s-2.014-1.353-3.337-1.353c-1.323 0-2.435 0.451-3.337 1.353s-1.353 2.044-1.353 3.397c0 1.353 0.451 2.495 1.353 3.397s2.014 1.353 3.337 1.353z"></path>
<path fill="#1c1f25" d="M57.997 9.226v2.525c0.812-1.864 2.375-2.796 4.63-2.796v3.517c-1.233-0.090-2.315 0.21-3.247 0.902-0.932 0.661-1.383 1.774-1.383 3.307v7.576h-3.247v-15.032h3.247z"></path>
<path fill="#1c1f25" d="M47.706 17.283v-8.057h3.247v15.032h-3.247v-1.924c-0.992 1.533-2.555 2.315-4.66 2.315-1.744 0-3.127-0.541-4.179-1.654s-1.593-2.646-1.593-4.54v-9.23h3.247v8.899c0 1.112 0.301 1.984 0.902 2.585s1.413 0.902 2.465 0.902c1.172 0 2.105-0.361 2.766-1.082 0.691-0.752 1.052-1.834 1.052-3.247z"></path>
<path fill="#1c1f25" d="M34.598 18.125h-11.965c0.241 1.112 0.782 1.984 1.654 2.616 0.842 0.631 1.894 0.932 3.157 0.932 1.714 0 3.006-0.631 3.878-1.864l2.676 1.563c-1.473 2.195-3.668 3.277-6.584 3.277-2.435 0-4.389-0.752-5.923-2.225-1.503-1.503-2.255-3.397-2.255-5.682 0-2.225 0.752-4.089 2.225-5.622s3.367-2.285 5.712-2.285c2.195 0 3.998 0.782 5.412 2.315s2.135 3.427 2.135 5.622c0 0.391-0.030 0.842-0.12 1.353zM22.602 15.479h8.839c-0.21-1.172-0.722-2.104-1.503-2.766-0.752-0.631-1.684-0.932-2.796-0.932-1.203 0-2.195 0.331-3.006 0.992s-1.323 1.563-1.533 2.706z"></path>
<path fill="#1c1f25" d="M12.627 17.494v-14.28h3.457v21.045h-2.706l-9.921-14.28v14.28h-3.457v-21.045h2.706l9.921 14.28z"></path>
<path fill="#387ff5" d="M106.773 8.258c0.836 4.138 3.878 7.37 7.772 8.258-3.894 0.889-6.936 4.121-7.772 8.258-0.837-4.137-3.879-7.37-7.773-8.258 3.894-0.889 6.936-4.12 7.773-8.258z"></path>
<path fill="#387ff5" d="M112.509 8c0.215 1.002 0.998 1.785 2 2-1.002 0.215-1.785 0.998-2 2-0.215-1.002-0.998-1.785-2-2 1.002-0.215 1.785-0.998 2-2z"></path>
<path fill="#387ff5" d="M101.009 21c0.162 0.752 0.749 1.339 1.5 1.5-0.751 0.161-1.338 0.748-1.5 1.5-0.161-0.752-0.748-1.339-1.5-1.5 0.752-0.161 1.339-0.748 1.5-1.5z"></path>
</svg>
</svg>
